# Alias OBJ Model File
# Exported from SketchUp, (c) 2000-2012 Trimble Navigation Limited
# File units = meters

mtllib cube.mtl

g Mesh1 Model

usemtl FrontColor
v 1 0 -0
vt -39.3701 0
vn 0 -1 -0
v 0 0 -0
vt 0 0
v 0 0 -1
vt 0 39.3701
v 1 0 -1
vt -39.3701 39.3701
f 1/1/1 2/2/1 3/3/1 4/4/1 

vn 0 0 1
vt 39.3701 0
v 1 1 -0
vt 39.3701 39.3701
v 0 1 -0
f 2/2/2 1/5/2 5/6/2 6/3/2 

vn 1 0 -0
v 1 1 -1
f 1/2/3 4/5/3 7/6/3 5/3/3 

vn 0 0 -1
v 0 1 -1
f 4/1/4 3/2/4 8/3/4 7/4/4 

vn -1 0 -0
f 3/1/5 2/2/5 6/3/5 8/4/5 

vn 0 1 -0
f 6/2/6 5/5/6 7/6/6 8/3/6 

